<?xml version="1.0" encoding="UTF-8" standalone="no"?>
<!-- Created with Inkscape (http://www.inkscape.org/) -->

<svg
   width="200"
   height="200"
   viewBox="0 0 52.916666 52.916666"
   version="1.1"
   id="svg5"
   inkscape:version="1.1.1 (c3084ef, 2021-09-22)"
   sodipodi:docname="home.svg"
   xmlns:inkscape="http://www.inkscape.org/namespaces/inkscape"
   xmlns:sodipodi="http://sodipodi.sourceforge.net/DTD/sodipodi-0.dtd"
   xmlns="http://www.w3.org/2000/svg"
   xmlns:svg="http://www.w3.org/2000/svg">
  <sodipodi:namedview
     id="namedview7"
     pagecolor="#ffffff"
     bordercolor="#999999"
     borderopacity="1"
     inkscape:pageshadow="0"
     inkscape:pageopacity="0"
     inkscape:pagecheckerboard="0"
     inkscape:document-units="mm"
     showgrid="false"
     inkscape:zoom="0.97081541"
     inkscape:cx="302.32318"
     inkscape:cy="391.93857"
     inkscape:window-width="1680"
     inkscape:window-height="997"
     inkscape:window-x="0"
     inkscape:window-y="25"
     inkscape:window-maximized="1"
     inkscape:current-layer="layer1"
     units="px"
     width="200px" />
  <defs
     id="defs2">
    <inkscape:path-effect
       effect="bspline"
       id="path-effect970"
       is_visible="true"
       lpeversion="1"
       weight="33.333333"
       steps="2"
       helper_size="0"
       apply_no_weight="true"
       apply_with_weight="true"
       only_selected="false" />
  </defs>
  <g
     inkscape:label="Layer 1"
     inkscape:groupmode="layer"
     id="layer1">
    <g
       id="g1981"
       transform="matrix(0.46339642,0,0,0.46339642,-17.680989,-23.743046)">
      <circle
         style="fill:#cccccc;fill-opacity:0.4;stroke:none;stroke-width:1.065"
         id="path1428"
         cx="95.251755"
         cy="108.33355"
         r="57.096542" />
      <path
         style="fill:#ffffff;fill-opacity:0.9;stroke:none;stroke-width:0.264583px;stroke-linecap:butt;stroke-linejoin:miter;stroke-opacity:1"
         d="m 62.281806,108.29271 c 1.742098,-3.2047 5.183303,-9.183792 6.989935,-12.345392 1.806632,-3.1616 1.978689,-3.505714 5.807157,-6.323325 3.828469,-2.817612 11.312938,-8.108358 15.313373,-10.882841 4.000434,-2.774484 4.516604,-3.032569 4.98986,-2.967891 0.473255,0.06468 0.903398,0.451805 4.860869,3.33385 3.95747,2.882046 11.44194,8.258822 15.1841,10.968797 3.74216,2.709976 3.74216,2.752986 5.48439,5.785634 1.74224,3.032648 5.22639,9.054638 7.07602,12.323788 1.84962,3.26916 2.0647,3.78533 1.78506,4.27983 -0.27964,0.49449 -1.05389,0.96765 -2.04315,1.18275 -0.98926,0.2151 -2.19366,0.17209 -2.73141,0.30129 -0.53776,0.1292 -0.40872,0.4303 -0.30124,4.71036 0.10747,4.28005 0.1935,12.53878 0.23651,16.88331 0.043,4.34452 0.043,4.77466 -3.22606,4.9681 -3.26908,0.19343 -9.80724,0.15042 -13.07651,0.0645 -3.26928,-0.0859 -3.26928,-0.21494 -3.24777,-3.41963 0.0215,-3.20468 0.0645,-9.48476 0.10752,-12.79694 0.043,-3.31218 0.086,-3.6563 -0.68813,-4.64564 -0.77414,-0.98934 -2.36567,-2.62387 -4.17229,-3.74236 -1.806626,-1.11849 -3.828296,-1.72069 -5.914626,-1.65623 -2.086329,0.0645 -4.23704,0.7957 -5.871725,2.15076 -1.634685,1.35506 -2.753057,3.33372 -3.333738,5.89323 -0.580681,2.55952 -0.623696,5.69956 -0.623692,8.8612 5e-6,3.16164 0.04302,6.34469 0.04299,7.97919 -2.9e-5,1.63449 -0.04304,1.72051 -3.269075,1.69896 -3.226034,-0.0216 -9.63515,-0.15061 -12.925807,-0.21513 -3.290657,-0.0645 -3.462713,-0.0645 -3.484354,-4.53805 -0.02164,-4.47352 0.107402,-13.42048 0.150551,-17.89418 0.04315,-4.4737 1.4e-4,-4.4737 -0.580582,-4.4522 -0.580722,0.0215 -1.699092,0.0645 -2.516379,-0.17193 -0.817287,-0.23645 -1.333457,-0.75262 -1.570183,-1.2258 -0.236725,-0.47319 -0.193711,-0.90333 1.548387,-4.10803 z"
         id="path968"
         inkscape:path-effect="#path-effect970"
         inkscape:original-d="m 60.582747,111.06702 c 3.441469,-5.97883 6.882675,-11.957922 10.323615,-17.93728 0.172329,-0.343863 0.344385,-0.687978 0.516181,-1.032362 7.485036,-5.290696 14.969506,-10.581442 22.453864,-15.872561 0.516457,-0.257831 1.032627,-0.515916 1.548543,-0.774271 0.430422,0.387408 0.860564,0.774536 1.290454,1.161407 7.485026,5.377257 14.969496,10.754032 22.453856,16.130651 2.6e-4,0.04328 2.6e-4,0.08629 0,0.129045 3.48455,6.022494 6.96871,12.044481 10.45266,18.066331 0.21535,0.51645 0.43042,1.03263 0.64523,1.54854 -0.77403,0.47344 -1.54828,0.9466 -2.32282,1.4195 -1.20418,-0.0427 -2.40858,-0.0858 -3.61326,-0.12905 0.12931,0.30138 0.25835,0.60248 0.38713,0.90332 0.0863,8.25932 0.17233,16.51805 0.2581,24.77668 2.6e-4,0.43042 2.6e-4,0.86056 0,1.29045 -6.53816,-0.0427 -13.07632,-0.0858 -19.61487,-0.12905 2.6e-4,-0.12878 2.6e-4,-0.25782 0,-0.38713 0.0433,-6.28006 0.0863,-12.56014 0.12904,-18.8406 0.0433,-0.34386 0.0863,-0.68798 0.12905,-1.03236 -1.59133,-1.63434 -3.18285,-3.26888 -4.77468,-4.90372 -2.021476,-0.60196 -4.043146,-1.20416 -6.065116,-1.80663 -2.150533,0.73153 -4.301244,1.46277 -6.452261,2.19377 -1.118148,1.97899 -2.236518,3.95765 -3.355174,5.93608 -0.04275,3.14042 -0.08577,6.28046 -0.129045,9.42029 0.04328,3.18345 0.08629,6.3665 0.129045,9.54935 -0.04275,0.0863 -0.08577,0.17232 -0.129045,0.25809 -6.40911,-0.12878 -12.818226,-0.25783 -19.227736,-0.38714 -0.171799,2.7e-4 -0.343855,2.7e-4 -0.516181,0 0.129312,-8.94704 0.258355,-17.894 0.387136,-26.8414 -0.04275,2.7e-4 -0.08576,2.7e-4 -0.129046,0 -1.118147,0.0433 -2.236517,0.0863 -3.355173,0.12905 -0.515927,-0.51593 -1.032097,-1.0321 -1.548543,-1.54854 0.04328,-0.4299 0.08629,-0.86004 0.129046,-1.29046 z" />
    </g>
  </g>
</svg>
